<?xml version="1.0" encoding="utf-8"?>
<!-- Generator: Adobe Illustrator 25.1.0, SVG Export Plug-In . SVG Version: 6.00 Build 0)  -->
<svg version="1.1" id="Layer_1" fill="#fff" xmlns="http://www.w3.org/2000/svg" xmlns:xlink="http://www.w3.org/1999/xlink" x="0px" y="0px"
	 viewBox="0 0 1427.9 521.9" style="enable-background:new 0 0 1427.9 521.9;" xml:space="preserve">
<style type="text/css">
	.st0{enable-background:new    ;}
</style>
<g class="st0">
	<path d="M580.7,312h62.2c48.9,0,81.8,31.4,81.8,76.3s-32.9,76.3-81.8,76.3h-62.2V312z M642,450.8c40.6,0,66.7-25.7,66.7-62.4
		c0-36.6-26.2-62.4-66.7-62.4h-45.2v124.8H642z"/>
	<path d="M868.9,450.8v14h-108V312h104.7v14h-88.6v54.3h79V394h-79v56.7H868.9z"/>
	<path d="M892.2,446.2l6.3-12.4c10.9,10.7,30.3,18.5,50.4,18.5c28.6,0,41-12,41-27c0-41.9-94-16.1-94-72.6
		c0-22.5,17.5-41.9,56.3-41.9c17.2,0,35.1,5,47.3,13.5l-5.5,12.9c-13.1-8.5-28.4-12.7-41.9-12.7c-27.9,0-40.4,12.4-40.4,27.7
		c0,41.9,94,16.6,94,72.2c0,22.5-17.9,41.7-56.9,41.7C926,466,903.6,458,892.2,446.2z"/>
	<path d="M1041,312h16.1v152.7H1041V312z"/>
	<path d="M1214.4,388.4h15.5v58.2c-14.4,12.9-34.9,19.4-56.1,19.4c-46.5,0-80.5-32.9-80.5-77.7c0-44.7,34-77.7,80.7-77.7
		c23.1,0,43.2,7.4,56.7,22l-10,10.3c-12.9-12.7-28.1-17.9-46-17.9c-37.7,0-65.4,26.8-65.4,63.3c0,36.2,27.7,63.3,65.2,63.3
		c14.6,0,28.1-3.3,39.9-11.8V388.4z"/>
	<path d="M1403.1,312v152.7h-13.3l-98.2-123.9v123.9h-16.1V312h13.3l98.4,123.9V312H1403.1z"/>
</g>
<g class="st0">
	<path d="M735.2,238.1v19.4h-150V45.4h145.4v19.4h-123v75.4h109.7v19.1H607.7v78.8H735.2z"/>
</g>
<g class="st0">
	<path d="M961.2,45.4l-93.9,212.1h-22.1L751.3,45.4h24.2l81.2,184.2l81.8-184.2H961.2z"/>
</g>
<g class="st0">
	<path d="M1118.5,200.9h-118.1l-25.4,56.6h-23.3l96.9-212.1h22.1l96.9,212.1h-23.6L1118.5,200.9z M1110.3,182.7l-50.9-113.9
		l-50.9,113.9H1110.3z"/>
</g>
<polygon points="158.5,311.9 128.7,363.5 0,234.8 40.7,194 "/>
<polygon points="326.1,416.9 254.2,488.9 181.9,416.7 211.8,365.1 254.2,407.5 296.3,365.3 "/>
<polygon points="508.3,234.8 379.4,363.7 349.5,312.1 467.6,194 "/>
<polygon points="158.5,311.9 128.7,363.5 0,234.8 40.7,194 "/>
<polygon points="326.1,416.9 254.2,488.9 181.9,416.7 211.8,365.1 254.2,407.5 296.3,365.3 "/>
<polygon points="508.3,234.8 379.4,363.7 349.5,312.1 467.6,194 "/>
<polygon points="486.9,66.9 359.9,193.9 254.1,88.1 148.4,193.9 21.5,66.9 41.8,46.5 148.4,153.2 233.8,67.8 254.1,47.4 
	359.9,153.2 466.5,46.5 "/>
<polygon points="452.3,519.2 402.1,519.2 344.4,419.3 336.8,406.2 307,354.6 299.5,341.5 254,262.7 208.6,341.3 201.1,354.4 
	171.2,406 163.7,419.1 105.9,519.2 55.7,519.2 131.9,387.3 139.4,374.2 169.2,322.5 176.8,309.5 254,175.8 331.3,309.7 338.9,322.8 
	368.7,374.4 376.2,387.5 "/>
<rect x="580.7" y="505.1" width="822" height="14.5"/>
</svg>
