<svg id="Layer_1" data-name="Layer 1" fill="#fff" xmlns="http://www.w3.org/2000/svg" viewBox="0 0 1391.58 1294.09"><polygon points="434.04 726.3 352.41 867.67 0 515.26 111.5 403.76 434.04 726.3"/><polygon points="892.88 1013.96 695.79 1211.05 498.09 1013.35 579.71 871.97 695.79 988.05 811.26 872.58 892.88 1013.96"/><polygon points="1391.58 515.26 1038.56 868.28 956.93 726.91 1280.08 403.76 1391.58 515.26"/><polygon points="434.04 726.3 352.41 867.67 0 515.26 111.5 403.76 434.04 726.3"/><polygon points="892.88 1013.96 695.79 1211.05 498.09 1013.35 579.71 871.97 695.79 988.05 811.26 872.58 892.88 1013.96"/><polygon points="1391.58 515.26 1038.56 868.28 956.93 726.91 1280.08 403.76 1391.58 515.26"/><polygon points="1332.86 55.7 985.29 403.26 695.79 113.76 406.29 403.26 58.73 55.7 114.43 0 406.29 291.87 640.1 58.07 695.79 2.37 985.29 291.87 1277.16 0 1332.86 55.7"/><polygon points="1238.21 1294.09 1100.8 1294.09 942.87 1020.54 922.16 984.68 840.54 843.3 819.83 807.44 695.31 591.76 571.14 806.83 550.43 842.69 468.81 984.07 448.1 1019.93 289.82 1294.09 152.41 1294.09 360.99 932.82 381.7 896.96 463.32 755.58 484.03 719.72 695.31 353.76 906.95 720.32 927.65 756.19 1009.28 897.56 1029.98 933.43 1238.21 1294.09"/></svg>