<?xml version="1.0" encoding="utf-8"?>
<!-- Generator: Adobe Illustrator 25.3.1, SVG Export Plug-In . SVG Version: 6.00 Build 0)  -->
<svg fill="#fff" version="1.1" id="Layer_1" xmlns="http://www.w3.org/2000/svg" xmlns:xlink="http://www.w3.org/1999/xlink" x="0px" y="0px"
	 viewBox="0 0 2500 2500" style="enable-background:new 0 0 2500 2500;" xml:space="preserve">
<g>
	<g>
		<polygon points="806.71,1345.12 433.06,845.55 239.03,845.55 709.69,1474.84 		"/>
		<polygon points="1250,1937.83 996.6,1599.01 899.58,1728.72 1250,2197.25 1600.42,1728.72 1503.42,1599 		"/>
		<polygon points="2260.97,845.55 2066.94,845.55 1693.29,1345.12 1790.31,1474.84 		"/>
		<polygon points="1755.49,1549.79 1658.47,1420.06 1600.42,1342.46 1250,873.93 899.58,1342.46 841.53,1420.06 744.51,1549.79 
			709.69,1596.34 239.03,2225.64 433.06,2225.64 806.71,1726.06 841.53,1679.5 938.55,1549.79 996.6,1472.17 1250,1133.36 
			1503.42,1472.18 1561.45,1549.79 1658.47,1679.5 1693.29,1726.06 2066.94,2225.64 2260.97,2225.64 1790.31,1596.34 		"/>
	</g>
	<polygon points="2264.64,369.56 2162.5,274.36 1706.34,699.51 1250.2,274.38 1250.01,274.55 1249.8,274.36 793.64,699.51 
		337.5,274.38 235.36,369.56 793.64,889.89 1250,464.57 1706.34,889.89 	"/>
</g>
</svg>
